<!-- logo_shape.svg (cleaned) -->
<svg xmlns="http://www.w3.org/2000/svg" viewBox="0 0 665 218" width="665" height="218">
  <path
    d="M0 0 C1.15066578 -0.03649721 2.30133156 -0.07299442 3.486866 -0.11059761 C4.97529794 -0.16923941 4.97529794 -0.16923941 6.49379921 -0.2290659 C10.05151133 0.31848135 11.67682893 1.69096494 14.21699905 4.19004631 C15.41189305 7.77472829 15.36511103 11.03725564 15.36417007 14.76826286 C15.36784676 15.54725681 15.37152345 16.32625076 15.37531155 17.12885058 C15.38635258 19.74740031 15.3901929 22.36591037 15.39400101 24.9844799 C15.40026522 26.85856058 15.40691198 28.73264 15.41391373 30.60671806 C15.43132441 35.70381669 15.44187516 40.80090595 15.45011926 45.89802694 C15.45526809 49.08093587 15.4613438 52.26384187 15.46763039 55.44674873 C15.4866806 65.40091474 15.50091346 75.35507332 15.50924236 85.30925405 C15.51902241 96.80840383 15.54536271 108.30736151 15.58574325 119.80644357 C15.61587046 128.68973754 15.6307079 137.57297632 15.63402337 146.45632041 C15.63637725 151.76452377 15.64538194 157.07252187 15.67048454 162.38067055 C15.69371163 167.3727849 15.69802014 172.36455803 15.68772316 177.35671234 C15.68722642 179.18971642 15.69358737 181.02273699 15.70727921 182.85569 C15.7249183 185.35682595 15.71793211 187.85672661 15.70474625 190.35786247 C15.72120012 191.44770331 15.72120012 191.44770331 15.73798639 192.55956113 C15.69399593 196.01195876 15.2535194 198.12582618 13.53620815 201.14567566 C10.67073314 203.67157685 9.40083069 203.79505001 5.62190628 203.73216057 C4.49446754 203.72410141 3.36702881 203.71604225 2.20542526 203.70773888 C0.98012352 203.67160736 -0.24517822 203.63547585 -1.50761032 203.59824944 C-2.7979493 203.57821106 -4.08828827 203.55817268 -5.41772842 203.53752708 C-18.86709493 203.30484808 -32.30475991 202.61170955 -45.73540688 201.89394951 C-53.76747625 201.46643762 -61.80181574 201.08360487 -69.83597946 200.69785881 C-70.69215366 200.65668025 -71.54832787 200.61550169 -72.43044674 200.57307529 C-149.05242636 196.89893121 -225.63663618 195.24003085 -302.34550095 195.19004631 C-303.53837078 195.18910721 -304.73124061 195.18816811 -305.96025801 195.18720055 C-411.37976605 195.1188813 -516.54169403 199.34479429 -621.78300095 205.19004631 C-624.48055286 198.55759708 -626.37984928 192.77364924 -626.32889938 185.59751701 C-626.3444059 184.42467911 -626.3444059 184.42467911 -626.36022568 183.22814751 C-626.38929464 180.69048828 -626.39114508 178.15363899 -626.39237595 175.61582756 C-626.407382 173.83791427 -626.42411418 172.0600148 -626.44248581 170.2821331 C-626.48589963 165.63800678 -626.50610035 160.99406842 -626.52122116 156.34977531 C-626.54088658 151.59655067 -626.58284555 146.84352626 -626.6228447 142.09043694 C-626.69786498 132.79036889 -626.74832639 123.49034627 -626.78300095 114.19004631 C-627.11300095 114.19004631 -627.44300095 114.19004631 -627.78300095 114.19004631 C-627.78300095 110.89004631 -627.78300095 107.59004631 -627.78300095 104.19004631 C-629.76300095 104.19004631 -631.74300095 104.19004631 -633.78300095 104.19004631 C-633.78300095 107.49004631 -633.78300095 110.79004631 -633.78300095 114.19004631 C-634.11300095 114.19004631 -634.44300095 114.19004631 -634.78300095 114.19004631 C-634.78300095 110.89004631 -634.78300095 107.59004631 -634.78300095 104.19004631 C-635.44300095 103.86004631 -636.10300095 103.53004631 -636.78300095 103.19004631 C-633.15300095 103.19004631 -629.52300095 103.19004631 -625.78300095 103.19004631 C-625.79997025 102.0212896 -625.81693954 100.85253288 -625.83442307 99.6483593 C-625.99289024 88.64205487 -626.14061313 77.63565189 -626.27777672 66.62906075 C-626.34864285 60.97026222 -626.42331363 55.31156688 -626.50663376 49.65293694 C-626.58688017 44.19360135 -626.65719215 38.73422045 -626.72057343 33.27466393 C-626.74652709 31.19018897 -626.77608004 29.10575566 -626.80926514 27.02138329 C-626.85508122 24.10530143 -626.88817872 21.18933482 -626.91825485 18.27305412 C-626.93479614 17.40846581 -626.95133743 16.54387749 -626.96837997 15.65308952 C-626.9740448 14.85666039 -626.97970963 14.06023125 -626.98554611 13.23966789 C-626.99476404 12.55016674 -627.00398197 11.86066559 -627.01347923 11.15027046 C-626.73228068 8.75866904 -626.06148329 7.227079 -624.78300095 5.19004631 C-621.15144114 2.76900644 -619.71281215 3.00519428 -615.40908432 3.17059135 C-614.43432792 3.2037217 -614.43432792 3.2037217 -613.43987948 3.23752135 C-611.25680471 3.31429648 -609.07462439 3.40614963 -606.89213181 3.49790764 C-605.3280172 3.55600739 -603.76386791 3.61317966 -602.19968796 3.66949272 C-597.93959265 3.82551461 -593.68010157 3.99458045 -589.42059779 4.16590142 C-584.94203754 4.34381394 -580.46303475 4.50977833 -575.98406601 4.67703056 C-567.46892884 4.99682294 -558.95424459 5.32738075 -550.43966919 5.66176194 C-540.85556246 6.03763791 -531.27102081 6.40173695 -521.68641841 6.76471865 C-507.4798483 7.30296512 -493.27351014 7.8469029 -479.0675149 8.40011609 C-476.67420455 8.49305925 -474.28086659 8.58525824 -471.88751984 8.67725849 C-465.16648861 8.93628025 -458.44609011 9.20086866 -451.72668076 9.49967766 C-435.80988823 10.19457005 -419.91603099 10.33861827 -403.98537946 10.324157 C-401.08066913 10.32237858 -398.17596615 10.32445298 -395.27125639 10.32651049 C-385.0459928 10.33368639 -374.82075871 10.32655006 -364.59550095 10.31504631 C-363.37415986 10.31367424 -363.37415986 10.31367424 -362.12814522 10.31227446 C-346.36610145 10.29408067 -330.6040668 10.27029071 -314.84205246 10.23464775 C-300.51887877 10.202944 -286.19658282 10.17998448 -271.87344837 10.24573803 C-203.59849365 10.55700932 -135.46477544 6.75319331 -67.29569626 3.34068108 C-66.26130378 3.28896972 -65.22691129 3.23725836 -64.16117358 3.18397999 C-54.25161944 2.68847987 -44.34218081 2.19112843 -34.43341875 1.68000537 C-30.83177567 1.49467138 -27.23000971 1.31180449 -23.62821913 1.12936199 C-21.97785769 1.04511634 -20.3275553 0.95970369 -18.67732286 0.87296784 C-12.45286522 0.54592324 -6.2249695 0.31272329 0 0 Z"
    fill="#000"
    transform="translate(636.7830009460449,6.809953689575195)"
  />
</svg>
